<svg viewBox="0 -0.5 25 25" xmlns="http://www.w3.org/2000/svg">
  <path fill="#D3CFCF" d="M 5.03033 11.4697
              C 4.73744 11.1768 4.26256 11.1768 3.96967 11.4697
              C 3.67678 11.7626 3.67678 12.2374 3.96967 12.5303
              L 5.03033 11.4697
              Z
              M 8.5 16
              L 7.96967 16.5303 
              C 8.26256 16.8232 8.73744 16.8232 9.03033 16.5303
              L 8.5 16
              Z
              M 17.0303 8.53033
              C 17.3232 8.23744 17.3232 7.76256 17.0303 7.46967
              C 16.7374 7.17678 16.2626 7.17678 15.9697 7.46967
              L 17.0303 8.53033
              Z
              M 3.96967 12.5303
              L 7.96967 16.5303
              L 9.03033 15.4697
              L 5.03033 11.4697
              L 3.96967 12.5303
              Z
              M 9.03033 16.5303
              L 17.0303 8.53033
              L 15.9697 7.46967
              L 7.96967 15.4697
              L 9.03033 16.5303
              Z"/>
  <path fill="#E07A5F" d="
              M 9.03033 11.4697
              C 8.73744 11.1768 8.26256 11.1768 7.96967 11.4697
              C 7.67678 11.7626 7.67678 12.2374 7.96967 12.5303
              L 9.03033 11.4697
              Z
              M 12.5 16
              L 11.9697 16.5303
              C 12.2626 16.8232 12.7374 16.8232 13.0303 16.5303
              L 12.5 16
              Z
              M 21.0303 8.53033
              C 21.3232 8.23744 21.3232 7.76256 21.0303 7.46967
              C 20.7374 7.17678 20.2626 7.17678 19.9697 7.46967
              L 21.0303 8.53033
              Z
              M 7.96967 12.5303
              L 11.9697 16.5303
              L 13.0303 15.4697
              L 9.03033 11.4697
              L 7.96967 12.5303
              Z
              M 13.0303 16.5303
              L 21.0303 8.53033
              L 19.9697 7.46967
              L 11.9697 15.4697
              L 13.0303 16.5303
              Z"/>
</svg>